<svg version="1.0" xmlns="http://www.w3.org/2000/svg" width="448.000000pt" height="512.000000pt" 
viewBox="0 0 448.000000 512.000000" preserveAspectRatio="xMidYMid meet" aria-labelledby="plusTitle plusDesc" role="img">
    <title id="plusTitle">An image depicting a plus sign.</title>
    <desc id="plusDesc">A plus sign formed by a horizontal line intersecting a vertical line.</desc>
    <g transform="translate(0.000000,512.000000) scale(0.100000,-0.100000)" fill="#000000" stroke="none">
        <path d="M2140 4624 c-99 -36 -170 -108 -204 -207 -14 -42 -16 -131 -16 -792
        l0 -745 -762 -2 -763 -3 -50 -25 c-64 -31 -124 -91 -155 -155 -35 -72 -35
        -198 0 -270 31 -64 91 -124 155 -155 l50 -25 762 -3 763 -3 2 -762 3 -762 25
        -50 c31 -64 92 -124 155 -155 72 -34 198 -34 270 0 63 31 124 91 155 155 l25
        50 3 762 3 762 762 3 762 3 50 25 c64 31 124 92 155 155 20 41 24 65 24 135 0
        70 -4 94 -24 135 -31 63 -91 124 -155 155 l-50 25 -762 3 -762 2 -3 763 -3
        762 -25 50 c-32 64 -92 124 -155 154 -65 31 -172 38 -235 15z"/>
    </g>
</svg>