<svg version="1.0" xmlns="http://www.w3.org/2000/svg" width="512.000000pt" height="512.000000pt" 
viewBox="0 0 512.000000 512.000000" preserveAspectRatio="xMidYMid meet" aria-labelledby="toolTitle toolDesc" role="img">
    <title id="toolTitle">An image depicting tools.</title>
    <desc id="toolDesc">A wrench and a screwdriver, lying crossed over one another diagonally.</desc>
    <g transform="translate(0.000000,512.000000) scale(0.100000,-0.100000)" fill="#000000" stroke="none">
        <path d="M565 5108 c-56 -21 -120 -76 -326 -285 -175 -177 -208 -215 -222
        -257 -21 -61 -22 -111 -2 -165 17 -48 818 -1095 877 -1145 61 -52 87 -56 402
        -56 l287 0 544 -543 544 -544 -25 -62 c-43 -106 -56 -192 -51 -326 6 -178 55
        -310 168 -450 26 -33 310 -321 631 -641 463 -462 593 -586 633 -604 40 -19 67
        -24 135 -24 138 0 140 1 547 407 406 407 407 409 407 547 0 68 -5 95 -24 135
        -18 40 -143 171 -609 638 -322 324 -611 608 -641 631 -139 108 -269 156 -445
        163 -133 5 -220 -8 -323 -50 l-60 -24 -546 546 -546 546 0 284 c0 191 -4 297
        -12 324 -6 21 -30 59 -52 83 -48 51 -1064 835 -1116 861 -43 20 -134 27 -175
        11z"/>
        <path d="M3495 5109 c-317 -43 -601 -184 -830 -414 -254 -253 -400 -573 -421
        -924 l-6 -96 429 -427 428 -427 90 15 c127 23 317 14 447 -19 202 -53 353
        -143 536 -321 l123 -120 47 23 c107 52 249 157 357 266 210 209 343 459 402
        752 33 170 20 521 -24 606 -28 56 -119 85 -176 56 -12 -6 -175 -163 -362 -349
        -187 -186 -355 -345 -373 -354 -29 -15 -73 -16 -367 -14 -319 3 -335 4 -361
        24 -15 11 -37 33 -48 48 -20 26 -21 42 -24 349 -2 211 1 335 8 359 8 29 83
        109 342 370 182 183 342 348 355 367 43 63 21 161 -44 194 -15 8 -57 20 -93
        26 -87 16 -347 22 -435 10z"/>
        <path d="M904 1868 c-833 -837 -818 -820 -870 -983 -104 -326 51 -676 361
        -821 213 -99 463 -80 659 51 36 24 299 278 669 648 l609 610 -27 111 c-36 144
        -44 320 -21 451 l15 90 -307 308 c-169 169 -309 307 -312 307 -3 0 -352 -348
        -776 -772z m-30 -840 c86 -26 166 -136 166 -228 0 -124 -116 -240 -240 -240
        -124 0 -240 116 -240 240 0 63 23 114 75 165 70 71 145 90 239 63z"/>
    </g>
</svg>